<svg xmlns:xlink="http://www.w3.org/1999/xlink" width="160" height="40" viewBox="0 0 160 40" fill="none" xmlns="http://www.w3.org/2000/svg" class="styles_logo__6rWW7" id="gtm-logo-bar-fixed-discover"><path d="M59.5145 19.7505C59.5145 17.5039 60.0187 15.7065 61.0269 14.3695C62.0352 13.0325 63.416 12.3639 65.1695 12.3639C66.5723 12.3639 67.734 12.89 68.6546 13.9421V6.58838H72.5232V27.0823H69.0381L68.8518 25.548C67.8874 26.7535 66.66 27.3453 65.1476 27.3453C63.4489 27.3453 62.09 26.6768 61.0598 25.3398C60.0296 24.0027 59.5145 22.1396 59.5145 19.7505ZM63.3722 20.0355C63.3722 21.3944 63.6023 22.4246 64.0845 23.1479C64.5558 23.8712 65.2353 24.2329 66.1339 24.2329C67.3285 24.2329 68.1614 23.7287 68.6546 22.7205V17.0107C68.1724 16.0024 67.3395 15.4983 66.1558 15.4983C64.3037 15.5093 63.3722 17.0216 63.3722 20.0355Z" fill="#FFFFFF"></path><path d="M75.0767 8.90062C75.0767 8.31978 75.274 7.84853 75.6576 7.47592C76.0411 7.1033 76.5672 6.91699 77.2357 6.91699C77.8933 6.91699 78.4193 7.1033 78.8139 7.47592C79.2084 7.84853 79.4057 8.33074 79.4057 8.90062C79.4057 9.49243 79.2084 9.96368 78.8139 10.3363C78.4193 10.7089 77.8933 10.8952 77.2467 10.8952C76.6001 10.8952 76.074 10.7089 75.6795 10.3363C75.274 9.97463 75.0767 9.49243 75.0767 8.90062ZM79.1755 27.0821H75.3069V12.6377H79.1755V27.0821Z" fill="#FFFFFF"></path><path d="M89.7621 23.0925C89.7621 22.6212 89.5319 22.2486 89.0607 21.9746C88.5894 21.7007 87.8442 21.4596 86.814 21.2513C83.3837 20.528 81.6631 19.0704 81.6631 16.8786C81.6631 15.5963 82.1892 14.5333 83.2522 13.6675C84.3153 12.8127 85.7071 12.3853 87.4168 12.3853C89.247 12.3853 90.7155 12.8127 91.8115 13.6785C92.9074 14.5442 93.4554 15.6621 93.4554 17.043H89.5977C89.5977 16.495 89.4223 16.0347 89.0607 15.673C88.71 15.3114 88.151 15.136 87.3948 15.136C86.7482 15.136 86.2441 15.2785 85.8825 15.5744C85.5318 15.8703 85.3455 16.2429 85.3455 16.6923C85.3455 17.1197 85.5427 17.4594 85.9482 17.7224C86.3537 17.9855 87.0332 18.2156 87.9976 18.4019C88.962 18.5882 89.7621 18.8074 90.4306 19.0485C92.469 19.7937 93.4882 21.0869 93.4882 22.9281C93.4882 24.2432 92.9184 25.3063 91.7895 26.1282C90.6607 26.9392 89.2031 27.3447 87.4168 27.3447C86.2112 27.3447 85.1372 27.1255 84.1947 26.6981C83.2522 26.2707 82.5179 25.6789 81.9919 24.9227C81.4549 24.1665 81.1919 23.3555 81.1919 22.4897H84.8632C84.8961 23.1692 85.1482 23.6953 85.6194 24.0679C86.0907 24.4295 86.7263 24.6158 87.5154 24.6158C88.2497 24.6158 88.8086 24.4734 89.1922 24.1994C89.5648 23.9035 89.7621 23.5418 89.7621 23.0925Z" fill="#FFFFFF"></path><path d="M101.587 24.233C102.3 24.233 102.88 24.0357 103.319 23.6412C103.768 23.2466 103.998 22.7315 104.009 22.0849H107.626C107.615 23.0603 107.352 23.959 106.826 24.77C106.3 25.581 105.587 26.2166 104.667 26.6659C103.757 27.1153 102.749 27.3344 101.642 27.3344C99.5817 27.3344 97.9487 26.6769 96.7542 25.3618C95.5596 24.0467 94.9678 22.2384 94.9678 19.926V19.6849C94.9678 17.4601 95.5596 15.6847 96.7432 14.3586C97.9268 13.0326 99.5488 12.375 101.609 12.375C103.417 12.375 104.864 12.8901 105.949 13.9203C107.034 14.9504 107.593 16.3203 107.615 18.019H103.998C103.976 17.2628 103.746 16.6601 103.308 16.1888C102.858 15.7176 102.278 15.4874 101.543 15.4874C100.645 15.4874 99.9652 15.8162 99.505 16.4738C99.0447 17.1313 98.8145 18.1944 98.8145 19.6629V20.0684C98.8145 21.5589 99.0447 22.6219 99.494 23.2795C99.9652 23.9151 100.656 24.233 101.587 24.233Z" fill="#FFFFFF"></path><path d="M108.82 19.728C108.82 18.2923 109.094 17.021 109.642 15.9032C110.19 14.7853 110.99 13.9196 112.02 13.3058C113.062 12.6921 114.256 12.3853 115.626 12.3853C117.577 12.3853 119.166 12.9771 120.393 14.1716C121.621 15.3662 122.311 16.9772 122.454 19.0266L122.476 20.0129C122.476 22.2267 121.862 24.0021 120.624 25.3391C119.385 26.6762 117.73 27.3447 115.648 27.3447C113.566 27.3447 111.911 26.6762 110.662 25.3391C109.423 24.0021 108.798 22.1938 108.798 19.8924V19.728H108.82ZM112.678 20.002C112.678 21.3719 112.941 22.424 113.456 23.1473C113.971 23.8706 114.706 24.2323 115.67 24.2323C116.602 24.2323 117.336 23.8706 117.862 23.1582C118.388 22.4459 118.651 21.2952 118.651 19.717C118.651 18.369 118.388 17.3279 117.862 16.5936C117.336 15.8594 116.602 15.4867 115.648 15.4867C114.706 15.4867 113.971 15.8594 113.456 16.5936C112.93 17.3169 112.678 18.4567 112.678 20.002Z" fill="#FFFFFF"></path><path d="M129.665 22.3696L132.35 12.6377H136.383L131.517 27.0711H127.824L122.947 12.6377H126.98L129.665 22.3696Z" fill="#FFFFFF"></path><path d="M144.131 27.3446C142.016 27.3446 140.296 26.6981 138.959 25.3939C137.632 24.1007 136.964 22.3691 136.964 20.1992V19.8266C136.964 18.3799 137.249 17.0758 137.808 15.936C138.367 14.7962 139.167 13.9085 140.186 13.2948C141.216 12.6811 142.389 12.3633 143.704 12.3633C145.677 12.3633 147.233 12.988 148.362 14.2264C149.49 15.4757 150.06 17.2402 150.06 19.5197V21.1088H140.865C140.986 22.0513 141.37 22.8075 141.994 23.3774C142.619 23.9473 143.419 24.2322 144.372 24.2322C145.863 24.2322 147.014 23.6952 147.858 22.6212L149.754 24.7473C149.173 25.5692 148.395 26.2049 147.408 26.6652C146.422 27.1145 145.326 27.3446 144.131 27.3446ZM143.693 15.4867C142.926 15.4867 142.312 15.7497 141.83 16.2648C141.359 16.7799 141.052 17.5251 140.92 18.4895H146.279V18.1827C146.257 17.3278 146.027 16.6593 145.589 16.1881C145.14 15.7168 144.504 15.4867 143.693 15.4867Z" fill="#FFFFFF"></path><path d="M159.956 16.2546C159.43 16.1888 158.97 16.145 158.564 16.145C157.107 16.145 156.153 16.6382 155.693 17.6245V27.0714H151.835V12.638H155.474L155.583 14.3586C156.362 13.0326 157.425 12.375 158.794 12.375C159.222 12.375 159.616 12.4298 160 12.5503L159.956 16.2546Z" fill="#FFFFFF"></path><path opacity="0.3" d="M33.9633 33.9632C26.2468 41.6962 13.7361 41.7454 5.95385 34.111C11.454 39.4797 20.2705 39.4305 25.7214 33.9796C31.2051 28.4795 31.2051 19.5644 25.705 14.0807C20.2049 8.58058 11.2898 8.597 5.80609 14.0971C0.371662 19.5316 0.338825 28.3317 5.69116 33.8318C-1.94331 26.0496 -1.89405 13.5717 5.82251 5.83874C13.5883 -1.94351 26.1811 -1.94351 33.9633 5.82232C41.7291 13.5881 41.7291 26.1974 33.9633 33.9632Z" fill="#4863F7"></path><path opacity="0.6" d="M25.7221 33.9632C20.2712 39.4141 11.4546 39.4634 5.9545 34.0946C5.90525 34.0453 5.87241 34.0125 5.82316 33.9632L5.80674 33.9468C9.04113 37.1648 14.2621 37.1648 17.4965 33.9468C20.7145 30.7124 20.7145 25.4914 17.4965 22.257C14.2621 19.0555 9.02472 19.0555 5.80674 22.2735C2.60518 25.475 2.58877 30.6468 5.74107 33.8812C5.74107 33.8812 5.74107 33.8812 5.72465 33.8647C5.72465 33.8647 5.72465 33.8647 5.70823 33.8483L5.69181 33.8319L5.67539 33.8155C0.339466 28.3318 0.372303 19.5316 5.82316 14.0808C11.3233 8.58064 20.222 8.58064 25.7221 14.0643C31.2222 19.5644 31.2222 28.4796 25.7221 33.9632Z" fill="#4863F7"></path><path opacity="0.4" d="M5.80601 33.9638C5.77318 33.9309 5.74035 33.8981 5.70752 33.8652L5.72394 33.8817C5.75677 33.9145 5.7896 33.9473 5.80601 33.9638Z" fill="#4863F7"></path><path d="M17.4958 33.9633C14.2778 37.1977 9.04043 37.1977 5.80604 33.9633C5.7732 33.9304 5.75679 33.914 5.72395 33.8812C2.57165 30.6468 2.58807 25.475 5.78962 22.2735C9.00759 19.0391 14.245 19.0391 17.4794 22.2735C20.7138 25.4914 20.7138 30.7289 17.4958 33.9633Z" fill="#4863F7"></path></svg>